{"title":"Nokas.2010.720p.BRRip.XviD.AC3-RSB","uid":6215165,"size":2369684005,"categoryP":"video","categoryS":"hd___movies","magnet":"?xt=urn:btih:723be1b9e9ca848394d57d98dd9f523924a9c2f1&amp;dn=Nokas.2010.720p.BRRip.XviD.AC3-RSB&amp;tr=udp%3A%2F%2Ftracker.openbittorrent.com%3A80&amp;tr=udp%3A%2F%2Fopen.demonii.com%3A1337&amp;tr=udp%3A%2F%2Ftracker.coppersurfer.tk%3A6969&amp;tr=udp%3A%2F%2Fexodus.desync.com%3A6969","seeders":0,"leechers":1,"uploader":"RealSB","files":5,"time":1299134453,"description":"\nNokas.2010.720p.BRRip.XviD.AC3-RSB:\n\n\nPlot:\n\nThe movie portrays Norway's most spectacular robbery, where 11 men occupied central Stavanger for twenty minutes and escaped with 57 million kroner (appx $10 million). A police officer was shot and killed.\n\n\nCast:\n\nFrode Winther Gunnes\t... \tKjell Alrich Schumann\nTov Sletta\t... \tDavid Toska\nGeir HÃƒÂ¸iseth\t... \tErling HavnÃƒÂ¥\nMorten HÃƒÂ¥land\t... \tErik HÃƒÂ¥land\nGeir HÃƒÂ¸yseth\t... \tErling HavnÃƒÂ¥\nThomas Berhane\t... \tMetkel Betew\nMarit SynnÃƒÂ¸ve Berg\t... \tBeate\nMorten Larsen\t... \tArne Sigve Klungland\nJeton Jajovski\t... \tJusuf Hani\nAndrÃƒÂ© Eriksen\t... \tThomas Thendrup\nPÃƒÂ¥l Christian Madsen Kvam\t... \tMan in street (unconfirmed)\nLirik Sahiti\t... \tIkmet Kodzadziku\n\n\nSOURCE: Nokas.2010.BluRay.720p.x264-SUG\n\nAUDIO LANGUAGE: Norwegian\n\n\nFormat                           : AVI\nFormat/Info                      : Audio Video Interleave\nFormat profile                   : OpenDML\nFile size                        : 2.18 GiB\nDuration                         : 1h 26mn\nOverall bit rate                 : 3 585 Kbps\nWriting application              : VirtualDubMod 1.5.10.3 | www.virtualdub-fr.org || (build 2550/release)\nWriting library                  : VirtualDubMod build 2550/release\n\nVideo\nID                               : 0\nFormat                           : MPEG-4 Visual\nFormat profile                   : Advanced Simple@L5\nFormat settings, BVOP            : 1\nFormat settings, QPel            : No\nFormat settings, GMC             : No warppoints\nFormat settings, Matrix          : Default (H.263)\nCodec ID                         : XVID\nCodec ID/Hint                    : XviD\nDuration                         : 1h 26mn\nBit rate                         : 3 381 Kbps\nWidth                            : 1 280 pixels\nHeight                           : 720 pixels\nDisplay aspect ratio             : 16:9\nFrame rate                       : 25.000 fps\nColor space                      : YUV\nChroma subsampling               : 4:2:0\nBit depth                        : 8 bits\nScan type                        : Progressive\nCompression mode                 : Lossy\nBits/(Pixel*Frame)               : 0.147\nStream size                      : 2.05 GiB (94%)\nWriting library                  : XviD 1.2.1 (UTC 2008-12-04)\n\nAudio\nID                               : 1\nFormat                           : AC-3\nFormat/Info                      : Audio Coding 3\nMode extension                   : CM (complete main)\nCodec ID                         : 2000\nDuration                         : 1h 26mn\nBit rate mode                    : Constant\nBit rate                         : 192 Kbps\nChannel(s)                       : 6 channels\nChannel positions                : Front: L C R, Side: L R, LFE\nSampling rate                    : 48.0 KHz\nBit depth                        : 16 bits\nCompression mode                 : Lossy\nStream size                      : 119 MiB (5%)\nAlignment                        : Split accross interleaves\nInterleave, duration             : 40 ms (1.00 video frame)\nInterleave, preload duration     : 500 ms\n\n\n          EnJoY iT ! :)\n\n\n","torrent":{"xt":"urn:btih:723be1b9e9ca848394d57d98dd9f523924a9c2f1","amp;dn":"Nokas.2010.720p.BRRip.XviD.AC3-RSB","amp;tr":["udp%3A%2F%2Ftracker.openbittorrent.com%3A80","udp%3A%2F%2Fopen.demonii.com%3A1337","udp%3A%2F%2Ftracker.coppersurfer.tk%3A6969","udp%3A%2F%2Fexodus.desync.com%3A6969"],"infoHash":"723be1b9e9ca848394d57d98dd9f523924a9c2f1","infoHashBuffer":{"type":"Buffer","data":[114,59,225,185,233,202,132,131,148,213,125,152,221,159,82,57,36,169,194,241]},"announce":[],"urlList":[]}}